<?xml version="1.0" encoding="UTF-8"?><svg id="Ebene_1" xmlns="http://www.w3.org/2000/svg" viewBox="0 0 184.48 454.75"><defs><style>.cls-1,.cls-2{fill:#010101;}.cls-3{fill:#ec654b;}.cls-4,.cls-5{fill:#fdd193;}.cls-6,.cls-7,.cls-8{fill:#fccc87;}.cls-9{fill:#fbeb3d;}.cls-10{fill:#b9539a;}.cls-11{fill:#b44492;}.cls-12{fill:#ca75ae;}.cls-7{stroke:#fabe6b;}.cls-7,.cls-8,.cls-2,.cls-5,.cls-13{stroke-miterlimit:10;}.cls-8{stroke:#fab95d;}.cls-2,.cls-13{stroke:#010101;}.cls-5{stroke:#fdd491;}.cls-13{fill:none;stroke-width:2px;}</style></defs><polygon class="cls-6" points="81.17 197.08 88.57 160.42 105.36 159.4 116.96 197.08 81.17 197.08"/><path class="cls-9" d="M32.1,82.29C27.6,19.02,61.57,12.45,97.93,12.45s65.83,26.95,65.83,69.84-29.47,77.66-65.83,77.66S35.14,125.08,32.1,82.29Z"/><path class="cls-5" d="M43.69,88.3C36.17,47.02,68.2,12.45,98.43,12.45s64.12,34.91,54.74,75.85c-13.9,60.63-39.6,75.09-54.74,75.85-18.96,2.17-45.71-26.34-54.74-75.85Z"/><ellipse class="cls-1" cx="77.46" cy="77.41" rx="5.08" ry="4.88"/><ellipse class="cls-1" cx="121.63" cy="77.41" rx="5.08" ry="4.88"/><path class="cls-13" d="M65.87,67.59c3.23-4.42,16.49-8.74,24.24-4.81"/><path class="cls-13" d="M109.77,61.47c5.03-2.42,18.83-.17,23.71,6.82"/><path class="cls-13" d="M91.42,102.8c4.35,6.6,10.92,6.64,15.29,.08"/><path class="cls-13" d="M83.7,129.1c8.74,4.8,21.95,4.83,30.72,.06"/><path class="cls-9" d="M72.66,29.14c6.67,14.45,17.39,19.28,29.77,22.89,12.38,3.61,30.44,1.64,38.43,12.27,6.06,8.07,12.54,12.32,12.54,12.32,0,0,12.07-6.95,5.44-26.71C144.85,8.18,114.97,4.32,109.99,3.38c-31.92-5.99-38.32,4.28-40.35,7-2.73,3.66,1.19,14.8,3.01,18.75Z"/><path class="cls-9" d="M64.18,10.25c-3.04-.05-5.96,1.37-8.52,3.14-9.39,6.5-13.91,13.69-18.59,24.67-9.18,21.57,2.19,28.09,5.65,39.35,3.6-1.51,2.72,.18,14.92-19.86,3.15-5.17,13.02-9.02,18.28-11.59,13.42-6.55,1.01-29.78-.36-31.93-2.22-3.48-8.34-3.73-11.38-3.79Z"/><path class="cls-4" d="M153.23,77.18c.76-1.21,1.77-2.29,3.04-2.81s2.83-.37,3.85,.62c1.01,.98,1.31,2.54,1.46,3.99,.23,2.21,.26,4.43,.29,6.65,.05,3.85,.03,7.98-2.01,11.12-1.29,1.99-3.25,3.34-5.15,4.63-.89,.6-1.81,1.22-2.85,1.37-1.04,.15-2.24-.31-2.68-1.34"/><path class="cls-4" d="M44.23,77.22c-.82-1.2-1.89-2.28-3.23-2.78-1.34-.5-2.97-.34-4.03,.66-1.04,.99-1.33,2.55-1.47,4-.21,2.21-.21,4.43-.21,6.65,0,3.85,.09,7.98,2.27,11.1,1.38,1.98,3.45,3.31,5.46,4.58,.94,.59,1.91,1.2,3,1.34s2.34-.33,2.79-1.37"/><path class="cls-9" d="M134.13,16.97c2.94-4.58,6.32-8.99,10.09-13.18,1.15-1.28,2.42-2.59,4.22-3.28,4.08-1.56,8.81,.67,12.21,3.02,14.75,10.22,26.17,30.45,23.42,36.72-1.69,3.86-21.9,6.39-33.96,6.39-1.31-11.07-8.84-21.01-15.98-29.68Z"/><path class="cls-9" d="M50.47,19.51c-3.57-4.37-7.58-8.53-11.98-12.42-1.35-1.19-2.81-2.4-4.77-2.91-4.43-1.17-9.14,1.58-12.44,4.33C6.94,20.44-2.82,42.26,.73,48.38c2.19,3.77,23.61,4.28,36.22,3.05,.17-11.43,6.98-22.35,13.51-31.92Z"/><path class="cls-3" d="M134.56,16.28c7.49,9.59,14.27,19.59,20.29,29.92,.47,.81,1.35,2.29,2.19,1.75,1.44-.93,.52-3.42-.27-4.82-2.05-3.61-4.95-6.85-7-10.46-3.28-5.78-6.57-11.57-10.65-16.95-.77-1.02-1.75-2.11-3.15-2.23s-2.47,1.43-1.4,2.79Z"/><path class="cls-3" d="M50.09,20.29c-9.78,14.8-15.17,32.97-16.79,31.73-1.87-1.43,.92-9.85,2.98-14.14,2.98-6.2,5.97-12.42,9.67-18.2,.7-1.09,1.59-2.27,2.86-2.39,1.27-.13,2.24,1.54,1.27,3Z"/><g><path class="cls-6" d="M105.07,303.53c-.53,21.96-.37,43.89,.47,65.77,.31,8.05,1.21,16.81,10.73,22.29,1.05,.6,2.27,1.18,3.8,1.29,4.05,.3,6.92-2.54,8.12-4.86,4.53-8.77,5.06-17.82,5.56-26.75l3.46-61.77-32.13,4.03Z"/><path class="cls-6" d="M108.19,370.22c-.54,16.52-.53,33.02,.03,49.49,.21,6.05,.89,12.65,8.55,16.73,.84,.45,1.83,.88,3.06,.96,3.27,.21,5.6-1.94,6.58-3.69,3.7-6.61,4.18-13.43,4.63-20.15l3.13-46.49-25.97,3.16Z"/><g><path class="cls-12" d="M109.82,425.41s3.17,2.82,5.94,3.82c6.16,2.23,14.37-1.44,14.37-1.44,0,0,10.9,8.98,15.65,10.54,4.75,1.57,10.1,2.43,13.54,6.02,.96,1,1.75,2.25,1.8,3.6,.14,3.4-4.01,5.13-7.46,5.61-10.32,1.43-20.89-.2-31.28-1.84-6.85-1.08-15.34-2.88-15.97-5.03-1.37-4.66,3.42-21.28,3.42-21.28Z"/><path class="cls-1" d="M106.3,442.6c-.38,1.37-.74,2.91-.09,4.2,1.53,3.07,13,5.62,24.62,6.79,12.43,1.26,22.88,.43,24.73-.22,1.86-.66,4.47-1.59,5.37-4.12-5.42,.58-10.77,1.76-15.96,1.96-5.22,.2-10.72-.35-16.2-1.05-5.84-.75-11.2-1.73-16.84-3.55-1.79-.58-3.86-1.6-5.62-4.02Z"/><line class="cls-2" x1="135.6" y1="431.46" x2="130.27" y2="435.62"/><line class="cls-2" x1="137.47" y1="433.05" x2="132.14" y2="437.22"/></g></g><g><path class="cls-6" d="M65.84,308.45c-2.38,20.25-4.07,40.52-5.06,60.8-.37,7.46-.19,15.62,8.97,21.38,1.01,.63,2.2,1.25,3.73,1.47,4.07,.57,7.21-1.84,8.62-3.9,5.31-7.77,6.62-16.1,7.87-24.31l8.7-56.82-32.83,1.38Z"/><path class="cls-6" d="M61.99,372.39c-1.36,16.26-2.16,32.53-2.38,48.78-.08,5.98,.3,12.51,7.98,16.9,.85,.48,1.84,.95,3.1,1.09,3.35,.36,5.86-1.64,6.96-3.32,4.13-6.34,4.96-13.04,5.75-19.64l5.48-45.68-26.89,1.87Z"/><g><path class="cls-12" d="M59.59,423.65s3.07,3.03,5.81,4.17c6.09,2.54,14.41-.87,14.41-.87,0,0,10.6,9.66,15.29,11.47,4.7,1.8,10.02,2.92,13.34,6.74,.93,1.07,1.67,2.38,1.68,3.76,.02,3.49-4.19,5.09-7.65,5.44-10.37,1.04-20.89-1.08-31.22-3.19-6.81-1.39-15.24-3.6-15.8-5.83-1.21-4.84,4.13-21.68,4.13-21.68Z"/><path class="cls-1" d="M55.49,441.13c-.42,1.39-.83,2.96-.23,4.31,1.43,3.21,12.81,6.3,24.4,8,12.39,1.81,22.87,1.4,24.74,.81,1.89-.6,4.52-1.45,5.5-4-5.44,.37-10.83,1.35-16.02,1.34-5.23-.01-10.71-.81-16.17-1.76-5.81-1.01-11.14-2.24-16.72-4.35-1.77-.67-3.81-1.8-5.49-4.35Z"/><line class="cls-2" x1="85.17" y1="430.93" x2="79.7" y2="434.98"/><line class="cls-2" x1="86.98" y1="432.64" x2="81.51" y2="436.69"/></g></g><g><polygon class="cls-7" points="158.69 321.86 155.42 302.57 168.01 299.98 171.28 319.27 158.69 321.86"/><path class="cls-7" d="M160.87,329.55c-1.02-.45-2.09,11.62-4.77,11.59-2.17-.03-1.18-9.89-.58-11.84,1.37-4.5,2.16-11,4.37-12.04,2.75-1.29,7.59-1.3,10.61-1.75,1.54-.23,4.13,8.7,8.18,19.04,3.33,8.51,.96,14.55-.5,10.3-2.06-6.01-3.24-12.45-4.63-12.8-1.72-.44,2.3,9.71,2.97,14.66,.21,1.51,.34,8.52-1.36,8.75-2.91-3.91-4.05-22.34-5.55-22.77-1.42-.4,2.15,9.79,2.35,15.66,.04,1.13-1.31,10.35-2.51,10.06-.67-.17-2.68-12.64-2.8-13.26-1.11-5.7-.54-10.28-1.26-11.18-1.19-1.48-.02,9.03-1.37,14.16-.27,1.03-1.09,10.24-1.85,10.03-4.69-1.25,.33-27.89-1.3-28.61Z"/></g><g><polygon class="cls-8" points="14.78 319.54 19.31 300.42 31.45 303.5 26.92 322.62 14.78 319.54"/><path class="cls-8" d="M24.35,329.97c1.03-.39,1.2,11.55,3.81,11.65,2.12,.08,1.87-9.68,1.43-11.63-1.01-4.5-1.31-10.94-3.39-12.08-2.59-1.41-7.31-1.66-10.23-2.25-1.49-.3-4.67,8.36-9.37,18.35-3.87,8.21-1.99,14.29-.26,10.17,2.45-5.82,4.06-12.1,5.45-12.38,1.71-.35-2.95,9.45-3.97,14.29-.31,1.48-.95,8.37,.7,8.69,3.13-3.71,5.57-21.81,7.07-22.15,1.41-.32-2.8,9.53-3.43,15.3-.12,1.11,.53,10.26,1.72,10.03,.67-.13,3.53-12.32,3.69-12.92,1.5-5.56,1.27-10.1,2.04-10.95,1.27-1.4-.64,8.9,.31,14.01,.19,1.02,.32,10.14,1.08,9.98,4.67-1,1.7-27.49,3.34-28.11Z"/></g><g><path class="cls-11" d="M73.92,186.19c1.44-.21-12.05,34.24-12.79,37.67-3.21,14.81-11.78,42.86-28.52,38.16h0c-19.56-2.68,15.87-72.13,41.31-75.83Z"/><path class="cls-11" d="M51.01,227.77c1.39-.4-5.91,35.48-6.04,38.97-.58,15.07-4.13,43.96-21.5,41.62h0c-19.8,.04,3.04-73.44,27.54-80.59Z"/><path class="cls-11" d="M121.73,185.4c-1.41-.31,11.54,35.02,12.01,38.45,2,14.85,7.86,41.88,22.79,39.3h0c16.74-1.67-9.95-72.35-34.8-77.76Z"/><path class="cls-11" d="M140.39,229.41c-1.32-.45,6.83,35.97,6.86,39.43,.11,14.95,2.44,42.39,17.13,41.42h0c16.32,.11-.73-72.85-23.99-80.85Z"/><path class="cls-10" d="M41.01,376.66s14.67-135.34,17.72-177.98c1.61-22.55,75.39-23.35,76.75,0,3.65,62.81,21.31,176.29,21.31,176.29l-115.77,1.7Z"/></g></svg>